<mxfile host="app.diagrams.net" modified="2024-01-06T02:53:00.618Z" agent="Mozilla/5.0 (Windows NT 10.0; Win64; x64) AppleWebKit/537.36 (KHTML, like Gecko) Chrome/119.0.0.0 Safari/537.36 OPR/105.0.0.0" etag="oFbbff13vSzufLfM8Lt_" version="22.1.17" type="github">
  <diagram name="Page-1" id="kfLcwCP285pXigS4FARj">
    <mxGraphModel dx="2072" dy="1101" grid="1" gridSize="10" guides="1" tooltips="1" connect="1" arrows="1" fold="1" page="1" pageScale="1" pageWidth="850" pageHeight="1100" math="0" shadow="0">
      <root>
        <mxCell id="0" />
        <mxCell id="1" parent="0" />
        <mxCell id="gsKTQ0ONkdeiCE5crQjz-1" value="" style="shape=note;whiteSpace=wrap;html=1;backgroundOutline=1;darkOpacity=0.05;" vertex="1" parent="1">
          <mxGeometry x="320" y="140" width="80" height="100" as="geometry" />
        </mxCell>
        <mxCell id="gsKTQ0ONkdeiCE5crQjz-3" value="" style="shape=note;whiteSpace=wrap;html=1;backgroundOutline=1;darkOpacity=0.05;" vertex="1" parent="1">
          <mxGeometry x="320" y="250" width="80" height="100" as="geometry" />
        </mxCell>
        <mxCell id="gsKTQ0ONkdeiCE5crQjz-4" value="" style="shape=note;whiteSpace=wrap;html=1;backgroundOutline=1;darkOpacity=0.05;" vertex="1" parent="1">
          <mxGeometry x="320" y="540" width="80" height="100" as="geometry" />
        </mxCell>
        <mxCell id="gsKTQ0ONkdeiCE5crQjz-5" value="" style="shape=note;whiteSpace=wrap;html=1;backgroundOutline=1;darkOpacity=0.05;" vertex="1" parent="1">
          <mxGeometry x="320" y="370" width="80" height="100" as="geometry" />
        </mxCell>
        <mxCell id="gsKTQ0ONkdeiCE5crQjz-8" value="" style="shape=stencil(rZfZbhsxDEW/xq8EJWrjc5r+R4A4jdE0Dhyny9+XU1eORXluUKBv4xkei+IiXm3k5vXx7mW7ifx6POy/bn/s7o+PG/m0iXH3/Lg97I72tJHbjdw87A/bL4f92/P96ffL3WK5PH3bf1/+4eeJCyR1gSL/Or1gYv3z4vPJ/Gn3fGGeqJbBPFJM6+aBSdNgn6khe/scBvtGjdftZ/dDpJQBUCegUJF1QITqCNiaCUWISXgESt/UdcAciAMgkTJwKUdqDmhUgUu5kY5AypQBUBKpjGmLVEHeKlNzgFIDK9TSHehAqcRlHWiRwrhCFVIQ1lZ7ZZ5LiSmC0tBAxdVepgqKTzOlMazKMEqqPtNaqIJMG9DGPWil0CCg1QNohcDW72O5aiOJeIngAUVh0u7BGVBKGEjVA3+bcA0I2QOKgOY7aAFQXBtl9gA6mAyI86ZR9TXiNIUVNIQlVrMHBLTcAoxn91IbCDCXmgciKlfb9NjUS33jPOTqgQ+ipOwBAaeARd3nofQJsAbkCSh4hTpFiTGgU1NnOESv9Wj4oEen2qjYpzbVNzwsLUzFAwXHNU6A4mJyM+giDmtEmZsUd7VMx0D+r0AicbkWEtTV7DuiNVivrVAcN22TEsW1hS7wzoO0QDFQTSuMxVQUjjn77ERciT0z1wHx+iTbaAVRytPZl3CUcpgUkE17UN8mkOoYJcl9Kl3Xidp7+Cz7tA+ZNWHJ4x5MXGckXUtXI+eGsDwggP3gNXmNtK59drVkaprBCibvfXlTAEFKFMbCwP4wFZcD2GzsZYPAeWhqsDnzAIqUvf7Eipj9OI8kcKvuhA9QPpt5dOZobHLf2bs5Q2eccrZEgG5kL4OtKqAzRZx5gM606YIKJlnog/HCHGT1H6+/H5rbw/tN+2H39HS6qF9+9zdze3W61cvtbw==);lineShape=1;strokeColor=default;" vertex="1" parent="1">
          <mxGeometry x="423.5841822590505" y="191.58923705656343" width="137.48044869569958" height="76.77872561221989" as="geometry" />
        </mxCell>
        <mxCell id="gsKTQ0ONkdeiCE5crQjz-9" value="" style="shape=stencil(lVfLctswDPwaXTHgE+Q5Tf8jM3FqTV074zh9/H2hKnRC0NpObjKNpQAssICmcPeyf3jeTZ5fLufT992v+fGyn8KXyfv5uN+d54s+TeF+CndPp/Pu2/n0enxcfz8/LJbL04/Tz+WG3yvOkU8LyPOftwNPkv+dfF3tD/Pxg32lVHv7SMFt23tP1feAQrlsA4ICXAdQHwsAxEgSe4Anlm1AEgq5d0mj4m2AaErExpDCNqAIeZOlRKGCrBYqvUtMDDyqlXyfJEcR5Ejt3/xt9pkEsKb2MgTgEgTUvo58ajzeBDi+RtgQQVoSNl/R8xzVS+yToS0zhYiz1LuUlWcPAa50AAkUQWEsPPfdIJESCro0Xq8A16jZAjgTdKKIqBbLXMrE6A1iY9AOLKhYFdAXq/a4oCzJDQlwOK3OtIPqGgbEnukIJUPtjcZoJeF+42rsIc21lc27PwnfLyZg1Txc2jalnhwA3OrP0IjffEVfeTFB4VZA6YNWZWbEWqVs+jPjuqhWh1XKPSrVYjVG+zOjoD8L0NEQeiIqw9EwDp8aqALAMt4MIMFiGgfoUr5AMrR9i5kOjOfVsgX0zC0diJiza0bNFID9sMYsogNiZit6en8G7cCUsyUBBcxNc5u98u6gP2aeC15JuMnV1Z6hyg/NrKMwgtk52CcmB4pu8CcyFOAh3uCgHA359DpogaAOfDmhDP0x9aBrLeL3s2vz/+314X1Hf5oPh3XF//i/3en1aP0eCPd/AQ==);lineShape=1;strokeColor=default;" vertex="1" parent="1">
          <mxGeometry x="433.5690966366383" y="307.1264436777485" width="114.8490391001933" height="3.386767141362725" as="geometry" />
        </mxCell>
        <mxCell id="gsKTQ0ONkdeiCE5crQjz-10" value="" style="shape=stencil(lVfZctswDPwavWJA8MRzmv5HZuLUmrp2xnF6/H2hqnJMZLRK3iRql8KxAMEh3r3sH553g/DL5Xz6vvs1Pl72Q/wyiIzH/e48XuxpiPdDvHs6nXffzqfX4+P8/vwwIaenH6ef0w6/Zx6TykQS/jMvqFDWfytfZ/xhPN7gE0Xt8E2p1XV8CKS5JyQqERCUQusIVamAP0ij4ghCMa0TopKGjlCEEvA5B0+wFWnrhBJJuSPYP5HTtXqCFErAaWWqqSNYoDMitMXFhcAkwGfDN3F4ZoC3tBWPLxCfmsOnDPG111GgAJJseCdsIQb7B776d80ZBeyw9g4nCigB6gOatxzI6vD/PVrDSx9QUxDCN9Lk8AX525bPN/sDSRs+srcf47n4+CABVZ9giz8SdKXWx8fyi+JTfeMyAYGaN/tD9AJF9jffSa0AML4Gh98oMM4ej/UcfUGiHqfXrvyGbxjv4h+oIj1YfamLf90o+B4fl4L7oD2JGrbH+ZupIL2pz2/BDfez+OAbejCFgwTXRrkvmCjUgIJKotx3iFRgD83iCblSRcMEe5OKHSNhnSDW5HqCDQeoi9o0Udy8UuA0EcSH1QKNopRIe1lY40ggDcGfe5NwIT64NDMuZPajxKR0kAReJpMbfAYOs9fp1GlACqyNOHus88H9+V1AsT3u3NayDIQfxGeqQBHv7Ukb8ZTg8QzxydkT4cFt+eqLzCZ2BTXz2Ql/G28Pb9eJp/FwmG8jt9/99cOW5qtLvP8L);lineShape=1;strokeColor=default;" vertex="1" parent="1">
          <mxGeometry x="434.9106036788762" y="407.62267389770204" width="118.81160954474626" height="38.14296977537629" as="geometry" />
        </mxCell>
        <mxCell id="gsKTQ0ONkdeiCE5crQjz-11" value="" style="shape=stencil(lZfdchoxDIWfZm81svwnX6fpe2QmpOyUQoaQtnn7eLtjwII929wt5pMtSzqWPfiHt+3T62YQfjsdDz83f8bn03bw3waRcb/dHMdT/Rr84+AfXg7HzY/j4X3/PP9+fZrI6evX4fc0w9/ZjimkyUj4Yx4omST+G/k+87txf8VncoYXYrfMu0QldwYa4QISSEpnkAspMPBCyr1BHcnLBkHsHlKg5JcNomvzNYMYKYNNJ0ehNwgJR5XJ95v2NW5ghZypaGcg55G7BlrD6joDV1pm7hoUJu5dco4KA4NIXvpNUymAL61wGs/NxSVe2PAcIB/s/Iz8L5Qs7zCf1fAe+1/s/KjqJt4kACuNz/u7GATBCwTDK+a1T3AVEijqKaDR8AEHNFg+Yn/khscJYMt7IJmipMXuF/mjlLOJZ8bzZzH8ij+5zxdjBavNVy04FH+lEg0vWMDOW4Eh/wt56/+KIOMNj+stW38EC0ytgFfqzbQybhP8vyBXAlqS4RPmtedlNUDO8B4H6Gt8Iu4TkPEJyrZAnV9rYuYInSSJ2qRS6kvI10MdaCY7mzJfoEESe6gEpQiSEKUdyufLhMI+Vq8rqT+GUoa68Z68uRBFWHe1Uee+jlSaVO9XdqbQJ1pzu4Qt3BpTr7QSKAKP2La+S/Nc4E0hXZrnAm8605VWFwyC3iwAzgq2d6FJS6CMalXebDiCDNxczqZmmCBv/NHW/Jd4tjzqHffmX/HHxLNeX8HRclbtFZ+g/0YClQ+wgL72DFrn68flzfUy7nbzk+36f/tGq0Pz+84/fgI=);lineShape=1;strokeColor=default;" vertex="1" parent="1">
          <mxGeometry x="418.25184107489076" y="495.5699912541345" width="195.66940687117358" height="98.83732434154581" as="geometry" />
        </mxCell>
        <mxCell id="gsKTQ0ONkdeiCE5crQjz-12" value="" style="shape=stencil(lVnLchw3DPyavaJIgs+z4/yHqyxHW1Ekl6wk9t+nmS2OhuBs7+q2loEZEmg0GpiTfvrx+OX7wym4H2+vL38+/Hv++vZ40t9OIZyfHx9ez2/4ddLPJ/307eX14Y/Xl7+fv17+/f1Lt+y//nr5pz/h58UvqqjvXsH9uvzFia///+H3i/3T+XlvH8U7Y58bsU+SdLL3ouz5RbQY+6bEvkme7YPkdN0+qbg62askT+xxnjTZR2qfg6Q42SfJzL6Kn+OTpRL7Eu35qzgS/9KkzudpEkk8axI1+XJSy3WHtuFlcwgjhccOuMF8Iq/SSMpaER9mB4CKYKg18eYNyKK77uCdEzej2reB82uvyPMrUAeN3bpKMTgNFNi4dZqPBOTRMGVx5g2FQgOJSHl2aKKZOKiE+Ujqx62OHcJSbHHA69jBD3BuDrgDKQc4GLgqAM+i5EbUt3oOo0KOCwLPm6MU8wDLsUOR0maHJoEcqUYpM8UkkAhJXHUS5jskHClQ0vAzNFIbtHzMStkeKat4RpNV0vwGPCITLCUncS7q4mime5rmSxcdgD900Cx+zkNJUsiRFEcyDuBW4gCqNr0QbNuYA3rNfOkKwJM7gCMMliraG8k03mAuXbd3HjtEW3GAY2BHyhJmwYCWwRKHBmXQCodKCgh50Jlba6Y9XYOlStRgYg5gIZOHKpF0FE0SZxIALURyad2gtrVdR5kPDqZEQW2BHUlHfW0OQQKDN6hyhkbnc5bpKnlOHDpGILwEqRNnum9pqMtjB2g745DpG3y1BYQ2GUhYfbSs0Sp3QEeb4d3VBGtZVj+3rWEck7e0xb6RGIGC0mJPsJ0XvddGkI+JeOD4Xe852t9UavuQQ7C1c+NEfnTLO28M2nYfieii9W5kzFkR0+3p8/NyftZ3/FJmsGeUbRVMtyfxjzbDXbxSRLSw2LMRY5Ts/jwU0ZaH2lAbVyrML/kqTNfa9tEaVXhtqOS9PZNfY4Dd4408vwwe39sT3kX8VzyzEdvG83ZBHlAQY90hOfb2tGDySkEE0IcFRgB6WMCEoj9qHw4Khg1SyY786DGeAjQsTYzZY6DOa5skFeMhTA3lJtrqMe2qCVGkYgIxsm1J6ZE6Ss0bAnfYROKdggidz/LKJiSvOZjCr3w30gfwWaNBNiZWaGrz0IUpu4MfUnovfVmvrLYbd3HN9E0epbWX78whLQunSPPgIRCMuOYjCBzMKHhjyPHLONvHKF4PRo0XTtnIg0lcHwU5lupcD33YZHpfl2FTR0kds7y3ecg32kKzc1cfycmRUrFCCkM/470cbab7WoEtL7dV4n5xQQoIQTQ13VcjBHxIk8FSDwNb7yxDf0w0rICa2ZrdWiD50SzvXFEB/c448CUYHMzM8j7gHjuonYpuLPLAEWat0FUWu0MeknG/jCSJq8sevLMt38sZaHRdQy6NbhDMuvPGytaNzf2dS2Ecqax7Z5a4MoT+brOd2RuilVZ9d84S56Qs2/nIK86of+/oNFXW8YuuUkAayXSssa2/ulk0q0g6raVgB+BEF5Gx2PF0W4tf20O2+flK7VHsfvlARfhFs42np2IbpV7sBzO6mQq2Fzo6Peqihh0Vq30ZF6w9X96ZcdbRIut7r2js6Rp4wZujnVy3vr2zZ/Esdrq4sT6p6wdXat8GI9x3nrhUvKP6DrqiLs/n+F/jyWSIrh+M2T7twx+kb9rjx/vX72/np6fLx/P9/9uv5fjT5Uu7fv4P);lineShape=1;strokeColor=default;" vertex="1" parent="1">
          <mxGeometry x="563.5646764781823" y="52.21635551168629" width="26.68544338098718" height="792.0758472901246" as="geometry" />
        </mxCell>
        <mxCell id="gsKTQ0ONkdeiCE5crQjz-15" value="OpenAPI" style="rounded=0;whiteSpace=wrap;html=1;" vertex="1" parent="1">
          <mxGeometry x="660" y="220" width="120" height="330" as="geometry" />
        </mxCell>
        <mxCell id="gsKTQ0ONkdeiCE5crQjz-18" style="edgeStyle=orthogonalEdgeStyle;rounded=0;orthogonalLoop=1;jettySize=auto;html=1;entryX=1;entryY=0.5;entryDx=0;entryDy=0;" edge="1" parent="1" source="gsKTQ0ONkdeiCE5crQjz-17" target="gsKTQ0ONkdeiCE5crQjz-15">
          <mxGeometry relative="1" as="geometry" />
        </mxCell>
        <mxCell id="gsKTQ0ONkdeiCE5crQjz-20" style="edgeStyle=orthogonalEdgeStyle;rounded=0;orthogonalLoop=1;jettySize=auto;html=1;entryX=1;entryY=0.5;entryDx=0;entryDy=0;" edge="1" parent="1" source="gsKTQ0ONkdeiCE5crQjz-17" target="gsKTQ0ONkdeiCE5crQjz-19">
          <mxGeometry relative="1" as="geometry" />
        </mxCell>
        <mxCell id="gsKTQ0ONkdeiCE5crQjz-17" value="FastAPI" style="shape=note;whiteSpace=wrap;html=1;backgroundOutline=1;darkOpacity=0.05;" vertex="1" parent="1">
          <mxGeometry x="990" y="445.77" width="180" height="250" as="geometry" />
        </mxCell>
        <mxCell id="gsKTQ0ONkdeiCE5crQjz-19" value=":8000" style="rounded=0;whiteSpace=wrap;html=1;" vertex="1" parent="1">
          <mxGeometry x="660" y="594.4100000000001" width="120" height="330" as="geometry" />
        </mxCell>
        <mxCell id="gsKTQ0ONkdeiCE5crQjz-21" value="Business User" style="shape=umlActor;verticalLabelPosition=bottom;verticalAlign=top;html=1;outlineConnect=0;" vertex="1" parent="1">
          <mxGeometry x="370" y="710" width="30" height="60" as="geometry" />
        </mxCell>
        <mxCell id="gsKTQ0ONkdeiCE5crQjz-22" value="Mom" style="shape=umlActor;verticalLabelPosition=bottom;verticalAlign=top;html=1;outlineConnect=0;" vertex="1" parent="1">
          <mxGeometry x="380" y="860" width="30" height="60" as="geometry" />
        </mxCell>
        <mxCell id="gsKTQ0ONkdeiCE5crQjz-23" value="" style="shape=stencil(lVjLbhsxDPwaXwlJlETpnKb/ESBObTSNA8d9/X25NWQvud4xcttsZixyORxR2vDDx+7pfbtJ4eN0PHzf/t4/n3Yb/rJJaf+22x73J33a8OOGH14Ox+234+Hn2/P57/enCTk9/Tj8mn7hz5kXqPFESuHv+YV06vL/zdcz/nX/NsNnkmjwLVGI63ihViyeqQB8jFSyJRSKIKBYqHVLqOPNTcKUslhCo8qAUImrIfRAKawTOFFMlhApgaRZqLMnMCBkJmk+JEZl6z4HTRrVrWSqwRIypQQInbKttDRqeZ1QmbotnETqDRAaZSsN/YkGQpJE1RKKagkUTipVW7hcR1Y3CS1QtDmwBgnEp+pnR4hjzdsEFZ+tQyokiNAp2BVU8AXkoFITm3SssOO6Fs6GFBMxWqF40+iwHbr4FAplkHJvJDagAIugeKe8QAHIomu4zeEjiqdTqQ7fgMEoXlzJKFSI71bXTBXkG8Mlv+sHLTigbi1SKKOC9dHp1wJHjK/W76JWDEmuD3e7ENQggbkoISwIyOQnDbXFCiiHNvaxeQ6YwL4LAo7IeYvcCyha1ZXhl2v4ZPueh+Wvxu++0GijNXy1+YbxidfwzXclMmstcVx0MRZdFoe/0wTeF/H36d4W+V4TOBfK1D+Fr8M2VpvSDUZUcI/JQtB3bChbwWnL3Mn4kwTxxj5Ne6gGlYLTqKoENYEONTYkrTIjlSZvLFo2JKO2kJ3WoYGkdcd3umOGwtCZws3wrKUEldappdpRTcccJG0Rn7SOhwVoT9gTdFRLeLZrNmkd3gJYoWY/FzU8Aet8Wq00msAtRFMUN/YnKL68mIBVjhWskNknPW1bgLA8J8y29rWjiBulJhvBh53kCDotAReYZhtbCO1atO9MLez2wQKNTE3Czf3atRGpj8TVIcH56KLl2ekL7eRhcQa+aGsFX9jj0aki3DirdYh3G7ni0Xx92VdnnYCaM4w5ZXbCRuffxbSpR3gk68u+PbsjaKCVgzeXlkbF1/J1+Dhae+37L6ylw/idw09WBONxx1LFh4Twn7ujuY/Xh+uF0Mv+9fV8nzT/v79A0lfnyyd+/Ac=);lineShape=1;strokeColor=default;" vertex="1" parent="1">
          <mxGeometry x="462.9196578093797" y="709.6814346477263" width="183.48974944724569" height="29.061977555071735" as="geometry" />
        </mxCell>
        <mxCell id="gsKTQ0ONkdeiCE5crQjz-24" value="" style="shape=stencil(lVjZbttADPwavRIk935O0/8IEKcxmsaB415/X6rGylnKGiNvsjxc8RiSI03h7v354W03Kb+fjofvu9/7x9PzFL5MqvvX591xf7KrKdxP4e7pcNx9Ox5+vj6ef789zMj56sfh13zCn7MdU5bZSPnv+UbLpPX/na9n/Mv+9QM+UXL4SJK28Y1KHvFCGeAlUouDQa0kYdvAInBPqIFyBgaFmAeDUinEbYMQKOpooKQCDFoPsRvkRAEYxEQ6upQqzGpsVJ2BkIKgU6BUB4MY+xHXDTK1MYZQqYInZKYw1mHOGyhcDtTKYKCVIqBeLlRGamgkBi4Vo9pYOCMLqkNZsVsKfkLrIS4GkbRsGxg3dQxahBrIUs1UxsJZ6QEzavP4Qg1E0JSkjVwlBc0wt/uY00gJBGzjhMfzA7ECfPX+M+y11oijwzPGB/V4kH/Dp+L9ASQ1fGkOX7A/zTGIAuhLYfbjywiEHWpjQpUyKpjxaww4wJ4xfK4OX1GBrWXGghmjEEEbSXF4bZBAjf35GO+GtfmP8mlDKvv84PODm1p9YW3i2eEZ1cvwo/9yy5+4IijGF3b4gBvYLQ4jLBIIjXTVkKABZv54/wXzufjzE/anNpdPRvmx/vL4gs93eO0NsYkfd1Igwf1YPJ9v9HsaB1DEfPssPvudmjHfbJ84PYfzr72clwWZUH6MLm5+Cglo+GoSYBxwEqBHdaW1JEE1V1Y722RHRLIj+aVxY0uaYHVb2FgRgUFeT6ECy5wj5dEgCEXQx1m6sloMTHmALKXSF+lCPOnPvG4Q/aqPpXPrugF3/bmo6gjfPUy3OxluUUED7lRbDCrMkmloN42s9gGw1crkFGkVKNBsXInrt0X6X1cgyVPDXuki6AdhT76W4AhLq3dGKz3IKnvFctE8G/jsJjbjnWMbQ1cPADuQ/UqehzIMQMXjIyjBaoTNKhhUYJG4C77CnbCSmIZX6D87/61g+Pzi8egNnD1FbamglxruCvEDPsPznSQ1PJqOn/1ochtvF5cvNE/7l5fzB56P//svOnbr/DUo3P8D);lineShape=1;strokeColor=default;" vertex="1" parent="1">
          <mxGeometry x="447.5869597637775" y="825.095076108172" width="190.24958856126113" height="75.31683576144496" as="geometry" />
        </mxCell>
        <mxCell id="gsKTQ0ONkdeiCE5crQjz-25" value="" style="shape=stencil(lVjbctpADP0av2p2pb3pOU3/IzMhhSmFDKG3v69cxoaV8WHyBuaI1eVIOutBnj62L++bgcPH+XT8vvm9ez1vB/kyMO8O281pd7ZPgzwP8vR2PG2+nY4/D6+X7+8vI3L89OP4a/yHPxe7QDmMRhz+Xh5opVj/P/l6we93hxu8UIk9PlGN6/g2/duMDyR5HR8j5f6AVqgmYJAppd6AKSgwUGraGdQyJeGuASdqpTcIFIBLYiH2BkUoIoNCnDuDXEhADImp9DFkc6kAA/VZSolE1g3MgdTXQZQCKJyFyK03sBMaMLA69NSwvI1f1wysTIE7A7bCgRNa9EEbfRkE3TLVPq3WHwG41CwnfZZioQa4pOZSH3QUysAlFZK+QaOxC7hk/aiOfKSAe2rt1R8glAD1tBH3ObIRgvxplJPDM8pQo+bxqASqFMvn8K4CgSIgkeErOzzMj5JGh1dQ4BjMX1dhSogRdkBzeAWtr4s+Y0qgkQ1fisM3jJeeEDbssP/BDYpp+q0RohaPxwRKPl5FBW7TTLjiC/K/ef95YuAqvidQpILjDW5E4Hy2aWpeCVewPyk7POOGr4uGxHwLi4ZE9TL+LBoSKIqRn95/AYpl5L/3p2L8or8YxHu3gSueKOr2GC6A+gIwVdxgn8ObRuv9MUmF/Ddt4hTXNLLXNlJ2DfAgYF4syYwXvfqdEbFYMU3plYGdiRY9+xpbkipg9agp3RRV2DamKZ1LYnMI6SchdYvbtAeIIVc/uFKEmyDPm3E2KNClJL7SmSeu3Be+1Z+QG6y0xOn2MKubDLvTyuS2X2WoxW06+OtBo4IuIAul3NKk2e4b8OLGovA+Mf8636EYDphZd9/c6aBDXmKOIxPd0Sgu8AomqmXUDdSAV0LwCmQ8ADhkrbPAN7BCgr+qjDsF+hOTxyMNHqbhc4PH8brhYiMZSYTgbx1XUb6Gd/mpD/LpL+0VSqL5RnJLOEiIz710eIy3D9c3HG+7/f7yguT2d/9GxB5d3qbI8z8=);lineShape=1;strokeColor=default;" vertex="1" parent="1">
          <mxGeometry x="810.9246316910353" y="628.7956878385548" width="156.09228404073292" height="94.9522924858154" as="geometry" />
        </mxCell>
        <mxCell id="gsKTQ0ONkdeiCE5crQjz-27" value="" style="shape=stencil(lVjLUiMxDPyaXFW2/JB9Ztn/oIqwpJYlVMi+/n41mzJYykxT3IaJG0vqVlueXbp5fbx72e84vJ5Px+/734f78+MufdkxH54f96fDWZ926XaXbh6Op/230/Hn8/3l75e7ZeXy9OP4a/kPfy64QK0tIA5/Ly+6UMj/33y9rH86PJv1IZj1rVAK2+uZejLra6eWttcXH0/pVEA8nTib9bmRgHiiBlQNIAlJAQAhLgbAQllAxkw5GkDUkDoANCp2hxhHkKuAVCjapDUi3l6/lMQWlSEHNVLuZn2gBBKQRqG69QFw0GRI5j2eDNb3TMnGXyFlvVG18SvrKQKOw5WsYx85rW8h1MSmUAeL6wDVnQWkPHSyXqRCYmWUmRixUCnbKuVOgmiuXkalQp5LoWBDUqV0kEOO1NgCKjVQJW3/7pSdSFCzJWqWOMlUAHEcidkDOkham9eVVbQMoNtiGSlOO1QQUkxU2SfdAXGq5uAADHlQP2FLnMShrk2ASzpQRjmoNq98HqlVk+62SrXhHq3E1mSqUAUngxLX2QMSKKtKo17tkBEgU2wegIhTj3Di06QFqVWoNF9W2ECNouuHSKHBHcQSp1pKQN6LzzktJcqAB61Ssc6n/QB5YIrRAxrSUh+2NbcoUmsdM8K8A+rpPLQ5ARiplceMMFWJgZFpx/kctAzIBCJFq1Z5m+W2AN6M+0e+5I5pVWtFSX8WkOKY7aYDBSWd0xDzdGQ1IL6ik44lTt9EANAAmi1rrqOl1gE6n9oGSipHwLRq01ll4uG2W+OVy0GPSeRL0j3Tqt+OQlIe3IECrVWLFCxvbZjCOguBxAUUxiixLozux6uIPSOlUZG3GoVR5k2jtCHpGzT8qI0FN8DhpDWA6ga4DnfQm0axFlADRQQoo1kmC4Amw6NZptsb4iFeeXevg8otQLbHese3pes5QKd3mPSVBSgA3WaWy5R1pa48IN8LfuJTgIB2aON0mtaj+5v4O+t0/9i4FLsBUTdoYIPstd3xJfrtOjitD4g07y9KASTZH1UqCgGO9/mPEh+t14f3LyAPh6enyweU+Xf/xURfXb62pNt/);lineShape=1;strokeColor=default;" vertex="1" parent="1">
          <mxGeometry x="341.1809176501397" y="972.9729011878553" width="23.552042017014628" height="51.63779291512628" as="geometry" />
        </mxCell>
        <mxCell id="gsKTQ0ONkdeiCE5crQjz-28" value="" style="shape=stencil(rVjLbhsxDPwaXwlJlCjxnKb/ESBOYzSNAyfp4+9L19DWonYnPfS29nJWFDkkR9rxzevj3ct+l8Lr2+n4df/jcP/2uONPu5QOz4/70+HNnnZ8u+Obh+Np/+V0fH++v/x+uTtbnp++Hb+fv/DzggsUwhmUwq/LHxqo6J9/Pl/snw7PV/aRpA32tVGJ2/aJahnspVAL2/ZMYbQvQk2QfRn9ydJXXLXPlGSwZ6Gckb3EwT5hf3J/2+1jI07b9oVqHu0jpbpt30jH/RaKKF1CQcfvU2SQrkIy+rMQZD38QjH476PwC+mY39wdXA9PozDGv1EG/ohSGu0jUwP8rEo6Jsx2zCgBStExosIMq6WYR8pl6JIq5TrGiCkCl2KYqrgkioDVWn3ZSCAFvNDl9QJQEpDoFqimsVFYmEDh2PfCuOvG/RPr1BAfJnOSwaZZqTiAwLgalx35LDUK2BeVqqv+gOvHukNhv0RFua6UiwckkAjrAOIAVkK4ZSQ3EmoP3BYgFh9XOEPstVthaTtbm04jmdRKCAEapewBMErap8AC4N6p1rlh/A4TAPDbyKRhcglEyUZnUw9A7Jtn4bn1gAoygDp+G1lQQVgvdXmosAsYgF1YjfAoSqmriSt6M9IXkfIEQALDEhfHKP1DjWqalmiQrlU9IOMabc2HCXYB6UG5SkTDJRfdHqTvanMFl7kCCyJOk90AAUfJbzpTRi7ZhGAPCP8TYGrGqUMbKRmwr0QvD1uGeRD2E8L0MyJfzX6019Sn0vrgTT5xprgzyEOrXvKVRWRuKSDXmExtJKQ2JnmSC8z02SWn0hsMq226jHvgBGeWhTWOezBdz0AASfYHE2skAhJXrPWNgFh6u12XxgZwUjp1Oq6zNfeTwsLWjzqfOoXVFdR6+Sz1e+UQipFJbTcTrXWiGBnAnU5MSwewZXPAE0O6ut4CxBFwPoGgrhR7DBdy1y74twCuZ8jSazfUuj/y2RkkgihplzpLmmOXQxv24oRGgmc+9Wk2e4VHUHZdlUlAcdZ+nroWPqBdWBOe5gKsNH8ENXt0BcDTOM9Y9UzTPBMjCk32DOVC8CdQs0+AcWGKZ4JnYuu+E3/Qlc3qlRD0/6MrJHv4e//0cHh6ulxfXb/391X21+Wui29/Aw==);lineShape=1;strokeColor=default;" vertex="1" parent="1">
          <mxGeometry x="383.2502876587678" y="974.1958099315525" width="35.57546940968541" height="45.62008100152161" as="geometry" />
        </mxCell>
        <mxCell id="gsKTQ0ONkdeiCE5crQjz-29" value="" style="shape=stencil(rVfbctpADP0av2p2V6u9PNPkPzITUjwlkCGkTf6+ch0DK8MhZDrDg7HPkXU50sodL15XDy/LLrjX/W77a/mnf9yvOv7RhdBvVstdv9erju86Xjxtd8ufu+3b5nH8//IwIIer5+3vwcL7yAuRlDL83Md4p2YK7t+d+5Gw7jctIdaGUAq5igncELIQR0Bgyq4hJKGECJ5C+waJ5PNlgs9U2hhiIO8BQe21bwgatFwmZErS4D1TBR45cm3IgRIogiff+u+pALhQDgbuCrDO5Fu8I0GSUGct/jNdZ/HMVnOH8M/iI0/Rfc2+qP1s/QfVTY4S2/wARascP8Vykv4A8IlCtNVF/qhW2niZGPgjZeqng5xhfUXTZ/FIbVHxyeAL6vhK0dqvoF6+2nxGyqgbHQUx+JCA3ihnk84EyuWIi6lWga0bvYE7AOfJ2FE7jGPlttVVrGi0VQoWH0DutVYpGrwD/qgWWCwe5F61xt7gGeELRdu7BWg5HebqMZ8C7A+92PofpoD+Cz5Hmx+dphk0S/Ez/WSq4LQrMj0+qN9TBW+os5Lp8YhqVjWG2QEsQHQ1Tf19csQH5FKl3BKuLBHezU7IK3tKLXaIKgH1cdUlo51yagIdG5pXI1UNC7V+YXvOKEHAJNIsilhCAdpQtaZ2dp0k7ny/ZZJ4EyOWaQB90SkdGVJvCVv3gzwLGyVWlzG5qXS6EfFs60Xi+M6afI2gF8et/Klfr8el/vS53eL11vgFwHd/AQ==);lineShape=1;strokeColor=default;" vertex="1" parent="1">
          <mxGeometry x="723.2876696547228" y="984.3953799094893" width="3.8303029497556054" height="51.378645682553724" as="geometry" />
        </mxCell>
        <mxCell id="gsKTQ0ONkdeiCE5crQjz-30" value="" style="shape=stencil(rVbLbttADPwaXYldcp/nNPmPAHFiIa4dOE7a/H2oqquY62iMAr3J8oyWjxkuB7l53d6/bAZ2r6fj4Xnza3w4bQf5MTCP++3mOJ70aZDbQW4eD8fN0/Hwtn+Yf7/cT8jp6efhffrC75nnqfiJxO5jfuHIuT8v7mb4btyfwz1lZ/BCuazjuVBmg68U8zo+eArF4H0gDw6IiXyyhEIFEHIithFxpFrXCbVQqDblQA6coIRqcxA9ASRdKwXbBC2DZ0jI0RKWM9cI1RKiNkZAn92ig8ZIlSTBI4rNOmuUARKSbUTRmFAjKrFYLUWKKCT9XrYEzQGFVIgvCH8r/T0ht4gXQoJ1VYJ0BEcJGE4JzhIKQ4dqADXYPqjHUdKp10ZS9SG55ibORUxX5JopWEJgLI3cIl4cpEGipAuJPUE9yh4SygWhYnlzZ+pKDps6dR7VUYVCqi3FpawRqvU7j8ZrDuq1kUjw3OjGd4nXBo10DhJKuBG1M7XOW2Q5/dvmcFaH/8TQqvguC27dXL2FujolimAOTPecjalIu5fWLtJk9VccRVBYvamTzSHr7AE5+H5YKt4DMfkmzgWP71F3oT2GytD0bMIpE4P4HUlnBtfuixW87+zm2yBcwXdm0yFWYL4dXoQixHu7BHCAq5LrR57HXnat2l+bWICfr1YOAVbft7OXaMih2fWPa+c1uD58bbiP4243L8jn//cbsb6at2m5/QQ=);lineShape=1;strokeColor=default;" vertex="1" parent="1">
          <mxGeometry x="673.5020669553546" y="975.4927676735992" width="83.67870494094313" height="3.9050342387231467" as="geometry" />
        </mxCell>
        <mxCell id="gsKTQ0ONkdeiCE5crQjz-31" value="" style="shape=stencil(lVjLctswDPwaXzEkQQLEOW3/IzNxGk/TOOOkr78vVFeOCUmbyc2xsRG52MVDO755ebh93u9Kenk9Hb/tfx3uXh92/GlXyuHpYX86vPqnHX/e8c398bT/ejr+eLo7//18O0VOn74ff07/4fcZl6ikCVTSn/MX1on53zdfzvGPh6chPoX4Qkm34zOlNsR3pty24wtxHuK1keTt+Ep5jJdGXbbjJf7/VqmB+3ZSHeJrIQXnz5lqHQCc50euA/wGfQA4xx0xqiRlAPgzDVHqnI5PqGQdxBvJmLNECihiI5YQ/18k6ykzMhtvDFMgzseoOSGt2/GaScb7ZtcoSEFfEJTdBIBRy9RGhgpWqeksyosqmLSAJKeF0Sq+hD+ijKxOPAOazK0/6qgptGZPZDzmgakhrxn1kVdNVIEyWqMaAEINAFx6dWTJD4nKF3cSiYAKEsFKlhdPACw5oHAEZHQkV/N4BzVS4E8HsEYAvLRQCbR26kAaDqglAhhk2gHBoqqzWLZYCjXDAYIy3SktABX4wQE9RwCDuupaajUCkPiq51UjQAFLDpAaaUWOc4ClCBCg1gkQEmdzg9w8kkVAA+JzQGkRgLqJ0yoLPxSUh77iuHcynVsEsEHx1QWgoCIgsXxPl0ZHcgMtABUdaWlRg+V+KgIhD50avoMsAAl52rvBwnGKLOpNrkRAxU/4GKCVWWoXAM+CX+9AEuUtfR631mcHjZ1d8iyW9aboeQhd1JsYkLfPyzrS6n0aHclaLPc+CSA/GEfHcYMzetfYp4vTAABqKzOroEmgx0xnPHa3Hmk1qIzaY9dtczXfLPZjkWEqSKpl/vktnoEXfEQNzcR1As7jI3DoJT6zIrPlBaO+aqGilyVuSr6YKNozOA5jledDbq0+Ydfz3Qq5s8fu5nYtQBS66LcNTrhCaaTId09EUaMcdltfrMCFL0a/2p3R+dts26t4AedvVEK89wQQX2OX8nh03xqHZ48X1JmptxjfUeuPnrTL5rex+8t4nqstaOPlQmgHhttyXrkw2mwX05ThKpSi6T0ejf5priFXgkCb7cdf1rwX7x/e3gzdHx4fzy+Wrn+Pb5L8q/NbKP78Fw==);lineShape=1;strokeColor=default;" vertex="1" parent="1">
          <mxGeometry x="775.4776141700413" y="971.0622749177346" width="53.6629565435137" height="82.01369893160245" as="geometry" />
        </mxCell>
        <mxCell id="gsKTQ0ONkdeiCE5crQjz-32" value="" style="shape=stencil(lVjLctswDPwaXzEkQPBxTtP/yEycxtM0zjju6+8L1UNFhOx1fJNlLAmAWGKhjdy9Pz+8bTcc3o+H/fft793j8XkjXzbMu9fn7WF3tKeN3G/k7ml/2H477H++Pp5+vz1MltPTj/2vaYU/J1ygqBOIw9/Ti1Yp8P83X0/2L7vXwZ7TYF+VckX2Egb7kokDXD8P9tnWL8g+jvaaiKH/YfQ/MaUE7Uf/JVCLyL6O9vYG+S+koz+RKQJ/KhUXLxW9bB4z5Tau31+ctedCXAf7OQHn3W+k4uyTXLZXpjKub+kH6cy5/72IF5RbacRljDeQgg1qozIemKWsgAy1THXMKCcS4FIM6xoSyAGjYBpJaUVaQBCNSceoLc8Mqq5KL8qZZrHveT6v0mOcAY0qOrhIcdyhVGJQGcnyOlaS3SwKXJLkj7oZNQF1LOs6cqdFyDXhHuISkCEg1JVLoJjEsr6KIaMdIgXxAAbnIKsLySoe7mAA9oCIroDog661J/oSQNUDIrizLa3R7VBg8RmgRQ9AXcpKI2cPKMgl4/wKAIsvUWMftKAd1HdOA8CgtTeyxcEJaj22wwrQAEUNEBwfAmyeFnRa8aFiirpqNcYFRCChsOY0Cpp71pc7IED0pWExoAZhAC+pAj4Hy4n6c6jo5psdWAAYuWS3kKtW0xHopGP3eAFgzOnmYjA+4FvjNkCadd0MYMogSzoL2bkDmZQExWcdzWUpF0qAoiY23DWjmHET5ceg1Y4SAJr4pmhKICJ1YpfAGIMxpOEdHKc5k4DSqLlLkVkwNaiwSvFKIAqUxHl1VbbOqPMHHT1/FEp006xO4yY48pjmZqffYH+zfHB061eQUVP8eTzkAjV99f3W8hmQ5iYd0zkNKaCGkh8xpusDMfNMjSJNr14O28iGalr9iDeNhKgebhw5ddXK8UirXp1fGZnV36Vmr9Cf9UjeQLzJj1St9cZ+wd7lp11RhFSSt0f1I13MfYxgeIhkrxKuAYzw+RaPYu+On4w4rHQ/zmg4UxHoxEKfhD5ZEbd/pLlmbw8fX4Sedi8vpw9Ky//9FyR7dfr6JPf/AA==);lineShape=1;strokeColor=default;" vertex="1" parent="1">
          <mxGeometry x="886.1660686266459" y="965.677132976658" width="53.61832940238264" height="71.40027063937532" as="geometry" />
        </mxCell>
        <mxCell id="gsKTQ0ONkdeiCE5crQjz-33" value="" style="shape=stencil(lVjbclshDPwav2oAIUDPafsfmYnTeJommSS9/X116sE24px18+acaEFIK7FixzdvD7cv+10Kb++vz9/2vw537w87/rRL6fD0sH89vNuvHX/e8c398+v+6+vzj6e7498vt4vl8uv7889lhd9HXKAoCyiFP8cP2qi1f1++HO0fD08X9pliGe0zLX9u2VeqdbQPFHjbPibKaQC0TDkCQKPEA6BWinUbYEdQHQClEQMAp+5AB0ijDGLESjq6lM3JDIJaKeQBwAYI2wBhyuMOqZGCNMgpqydA6JlZBRTuae2AmGFYS6E07qDEINEW9DAywxYo0L6MDmVIVPMn+/WzwgPXkdmVCshZsfiFkajUwPpSScb4RKs9ECDJff8TIMJSk0Rh9MiKKQJAVl+cBqjAJeNpYQ9AQcqFtPgzIBZZobDrL9QAKyRSKS4LjOyll8mZFQWxOvj1rXuAwizi7ZkiCFA1Fo3NKFJG9oXCuH6AVdOir4LQSbJuX3x/D6QC7LUT5tRXYFVqIh6rQIjB+na71NHe8gv81+r9MYYK2mDq1bH0C2X9vglhKrPSu/HmFuoBBQPaBGgYUJMHKGhGBshuB7uCMMDdsgZAxDYZoXUCgGZkAJ+5CpWCASRPUUJnaP4eN0AF0kJPuuACIIh9aztAutoZJvZF7JLPtPRAb+aheACs0DnTAlvwCpcE9siFrVOUAjr0Wj2gW2SpuDblAZxhvajlyhZT5pCgWk49+aSogrQ7cFkQOBGcPAApDAO4y+QawCROnFzC7JMpc/DQrV9//xvWDwOsvTuXGJOJiUdAw7019go+S4wICq41Lzy5U2vdXrzwTJRA9ZgE8H0SCnOTGL4nwUqo0dd/6j1qU5i76QhKnmLb+3gmcKOL3QJj3dikAeJvsrmN8bR2g1VzdIUcoWIwjZom5Y8oatNdc0M5FGFSfEO1OgURFZ1HHUGjWvKXToGMMxHsKib3frw12rleyr1XbolmHhktsAsV7RLw7H9Fo6CJyOzij4RFyX2GuJiVK0iYTRXsVHOETxA2CzpOm0soZfn0QnHxogBZHf3glfFDEHPn2CkJCi+PZf52LNL+7LF+KaufpWqFSiROdWO9EopU/8ahARJP/ESuGV4FNpy6JxHtXzbsXadelA96+5qGZWsU0N4/9ikszDBpnIDHx+Ab0dUNJEz2gKXBK5wlQIBzod/sF/YV+h+mgKLpcVKNiwaD553tUSc1+ylhqGQ++pp73d5+nJ+O7w+Pj8eX58v/+6dm+3R8pubPfwE=);lineShape=1;strokeColor=default;" vertex="1" parent="1">
          <mxGeometry x="877.5926725994236" y="743.5571263652055" width="153.85022388075458" height="196.8577765308571" as="geometry" />
        </mxCell>
        <mxCell id="gsKTQ0ONkdeiCE5crQjz-34" value="" style="shape=stencil(7VrLbhw3EPyavRIkm68+O85/GLAcCVEkQ5bz+Ps0s+HusLhTA+VkILqtRlWcJvvdnJN8+Hb/6evdKfpvry/Pv9798fD59f4kP51ifHi6v3t5eLVfJ/l4kg9fnl/ufnl5/v70+fz3108d2X/99vx7X+HPM0+bi76zov/r3yfqNPzz5Ocz4fHhaUtIrgChucYI3mWZCdUV2Se05KrOhOyUEGp1GQjiStonFHU+zwTvat4nZHV5JrTqQtknJCO0mRCd6j5B1NX5WGtzQjYtJnGZCeIieUMUF+pEKM0ForhQXANCpJoOwZVZD7m6RAimt3kLOTit5FTHiQx8KmOF2wI5nc80BRfaPt4PaQdesmvEjrzz8/pdKZHh27x+zK6S/Qqaqe0okPWL0zThuwqJDZnCdLbSYK9kBPPc2SSUbsB2kGaNVeeJAmJbNMa9RlydNyBOyPpSx3lcTtRFYqDJNDZbaHDC3D66PMtvC3iKVwV8IgaXzMUT4Nl+DZ8j4vn67U34NCLIBk/iqOGl4X7Z+ViyQXkSCxBpHPcVn7k8KoAvTL8JHeYShXfxFfCN6cvkR3tQjq/g8dS/DA+5OPA0Fod6NusTezD/Ulzfk4Alaahzgyf2YPG15TfgLdxAKcHlt3jccL8s4Bre4/qB5eAb+mIJyfCQkQzP5F/80fbL4zPEN25vhi9o/42vnxd/YfILVgTmjyQ+d3nQfxOXv6I/snhu+CU+R4ZP499X/IF+l/Oh9nYjXgVu/wnjJ7Mf86+QEU/2a/k3YfyPzN8L+qPhWb7W1d5ofgmrvgqRx/Id5JdA9WvxM83rxyM8xHMZBcJtvMUTqIhpvDJ8nO2hjIJoDw/5t42SfQ+P+cIPjewRwMFCHEXpHgEjeqYhqxOgZrUm4OANgoTC31CWNxycalrewMKiEcJCYB1uWlriUPixmqGWhcA8IQ1H3+6BuZrcaDZoLSTY/XQ98GJ03XRm1bpgw2oEYead0N2MwOJRWjrQTjgoYDMSaMWVMIIdEcyll2OlImWclnQCt9a6+APtOm66KBcJ26xCR0RdpNX4mLVmbISOzHuJrN2BmPElbF2PXTSvLsqDQFxs6aCb8ItIlfmDjHHHVg+8v1xNgzZc/4UA5n2puXdbXjjWyHuopacOfIrTm/b5DY0WtYYv8wsKnSoZHgTKtCi0ogcmgcKb2DBmPNeiR4kKrAhL2HSxIYUVeQWbIlZkWxGJEexo8ukb4lmTUMdcdFPksaL8f9jUYdH83tRN5/9jNXUZ44nnQ9WKIdRT++lDFpSHDn3SUM8GT/QrbcyENnhWHVxmMBs8SxnvQ9X3oeqPPFQVrB/CSLB79uwx/7JbMsvXHi85WNUnl4b7Wj+wwtXig8z2kGlb1uMb3FRS+wm61AM84AZZFCY0A7Rlylv5zAEDSq8gyA4iJqQ+V2YXp2jQ/R6RZQAngM/UY5ayvpeARP6CjUbifbTisCEHKo+pB67TM79ODw3vHUukHWVcurFSaYMoy01HjTyqBDykWkfddZNgZwLDhhbHNPG2FjyaReNdcfW4B+WOU5frVpUh5G3HKRgqNNPaWwMOfbTSZN8/9ZhtVRvdgy5fWtgT5pyq6J32REh9dv0gZkNgnzV0giKBRcjgly8JjMFq5P6KjITKCRAD+hOmCF2u+pU6hC5RoAtJ8kjX03KuLDGbJcCmNwe3xyiLcbAPCowAFyadQDzi7d9PHRPsx/VzrS8Pj4/nr722/8fPu+zR+dMw+fg3);lineShape=1;strokeColor=default;" vertex="1" parent="1">
          <mxGeometry x="232.6291883793765" y="620.5415595125319" width="127.11588876015139" height="337.20501639250506" as="geometry" />
        </mxCell>
        <mxCell id="gsKTQ0ONkdeiCE5crQjz-41" value="" style="shape=stencil(lVnZchw3DPyafWXxPp4d5z9cZSnaiiK5ZDm2/97NbHE0bM604jd5DQwJoNE4eAkfvj58+nJ38fbr68vz33ffr59fHy7hj4v316eHu5frK/66hI+X8OH++eXur5fnb0+fb//+8qlL9r/+ef63f+HHTS+bkruStz9vPyRngv3vlz9v8o/Xp0k+xUk+ZpOlvGuzvDctKHlrJ/lQx4ln36+zfDAxKfnqJnlfTBHyxeTZXu9MrefyuG2a5N3mgUP5Nry3yTvj3Lm8sybPBmfTxH2cNzHMDjI5C3lcdzYY9ynn8vjvMhtgRwSP5YtpnuSjkEc4CznUNCXfTPBkbxP+j9HURv5UeEjWeLqPlQFLydg5w1w0VilUUygC1XihkBGh+QTvB2qPFfxI8V0SOJU03qQyO9WZpLLemUyoS6Ypo5EHdEKTcUvFhPmEGCRRpMiZD+ZKXih442cvxWasUgCSiUvxCWUDoDFjKWWZPNmaMCc//GZV4ABmQjf4QKRzCQy+nCS/VMeEnZskmAoCmI3GmV4oNKTLHOmSxyWPFZAus5eqlV5y1rIRNcgqiCPyzDIVYFJGLCxQQVSqLlgutM0NAB/7NY3vbQphePo41LCBFJKpwgYElqiylUG2Z3D1c8rBb0GxgOWkhoJCX3TGz3FozURxpYDuI7OC4nufmO+h0EQGuWIq0bfVJREFpFo+wqsaZGzkOKga7RYoBRnoJWxV+2jNniR7HvDk/P2iXWoHBjb5OHByZu8MilwHbx7HmAkGJFlUz7OwcJGpieo5500K45cT+UyVqo1yeiJPPTyaGkXyYZSxXelUPW3gHhjyQXw/cg/ce37x/TQKxk5e+T9zhnV5URDKQNf+PopKuULBXpWPiM4iXxQ+7RKAKMtNV3CsoLrgxuUpJomIyswO+aY9uvRSXkQ4j3ju5KPwUOKMgbyqlsD7Iq8YMfDUBXsV4gIzXEwSEZ6HFsQrS0Zh/6PpkfeJdB8wivBn5DIJeSfwA+uWjKmq0pu4ZqS4T1kYDt8X8vUgw5y4Txs7gL1/VHs20L7z/ztTuF0CXN7J4N9SaNzNoQYUcaO2jBKag5Y9RdoG8xN5v9TIKhnFzghCDdYMRAyHGq/2AnXEf9/jS/m49ChW+qfO9qIHcprTqUj2uUU4FH0iYa5lOaX4jfJ3CioJ0OtSn4UGX+5CLKcNFBRIgUnavkHBK16pywmofGqALbzbQO/qVWXaWp/d3KSAXZbcx+gVxQk1jgljg0bVqbn0r8CenHj9IOdNwY0CcXylytCAVRLdgd1aEGnlpTz4cFPwuuLXgyZcNcnZcVOUk9zkguDIaFCSIu1Ylr5dB64XMWrc0wD82TgaiFWdrGtx2c72HZMAH2yg3UavIwJLvWyQgtcpimloNjq8s/YKnEBBN5t9E0c7fjf61TOFRAvOMhqCsyuxQpDwRpiIKl2TI1Gsoxrs9vyqI+wjAZ2AAioUQuV9ZdOL78j5U0ZTfLbYoE1IlOnmlvtsYTx7SKiZ76MeKhKngnNyRnCRWyQcGVXTFvipok/+6i0kjCFihzvV9Lhlu9Rfo/QJnGy6TXKB11FRw8ht5fJ/rr2hQLNU2pZspwqOFdS6ort1vlLnHHWC58BBISi3LgU06RcRQI2wBIWqFCxPMFBQ29bGnJc2rJz188v3db9NdaFbLNK/8M4F8mpxWrjTe6sTZzuaOXUAClVrf/8d+j15/PH26H1/fXy8vZnv/58fyfHT7YE9fPwF);lineShape=1;strokeColor=default;" vertex="1" parent="1">
          <mxGeometry x="246.20760773701886" y="957.2090976462187" width="47.34875745322233" height="93.23488127906785" as="geometry" />
        </mxCell>
        <mxCell id="gsKTQ0ONkdeiCE5crQjz-46" value="" style="shape=flexArrow;endArrow=classic;html=1;rounded=0;" edge="1" parent="1">
          <mxGeometry width="50" height="50" relative="1" as="geometry">
            <mxPoint x="477.71" y="1003.3299999999999" as="sourcePoint" />
            <mxPoint x="640" y="1003" as="targetPoint" />
          </mxGeometry>
        </mxCell>
        <mxCell id="gsKTQ0ONkdeiCE5crQjz-47" value="" style="shape=flexArrow;endArrow=classic;html=1;rounded=0;" edge="1" parent="1">
          <mxGeometry width="50" height="50" relative="1" as="geometry">
            <mxPoint x="980" y="996.8399999999999" as="sourcePoint" />
            <mxPoint x="1142.29" y="996.51" as="targetPoint" />
          </mxGeometry>
        </mxCell>
        <mxCell id="gsKTQ0ONkdeiCE5crQjz-48" value="" style="shape=stencil(lVfLctswDPwaXTEkQYLkOU3/IzNxak9dO+M4bfP3gapQESFrO7k5CpYUdhcPDXz3sn943g3BvVwv55+7P4fH637gb0MIh9N+dzlc9dfA9wPfPZ0vux+X8+vpcfr7+WGMHH/9Ov8eT/g74WqmHEdUcG/Tk0ie/z34PsUfD6dFfPEktYtPxGk7XiqV0sXn9uBmfBIqvov3nmrdBsRAtb/AZxJwQ6jk+gw05Rq3AV4oSQdgppi3AdlSFJmcAylQMJRqTuB8ZbzPWAIJSEAlcL0EnhgnHI1mhQrQIAhx7gBFOQM3cCXuKa1MHtgoZmujqjcEACgUxQKKQEDpVdDSQCzFSt5bQEUyK6DXoepLImuX9sYzQL2LWNLzggVAlpTWFaBgHT66w1xtzmFzy413qkiIRHmVdQYtSQFhdQNULq54VabRDZGyt4CAaIq25NQbgpNem8kj5RKJAQhlrEOIFhBR0kI1WQCkdU5xeQMCKImrooZKF8p5xRKiVetFLOBDys0a7f2tSjOitTQzL70Exo8CkukztfXzLYCLFpBR0tl247HiwDxRpSWtAKgxpXbesm3gEv0agHNrdAtrBJBD4LaGzCOoUgA3eJ2xfQHpauMArcn2gBygDM4aQ6c0InVuo4stwCGr2mkSXVudbifMdi1hRwKsrVPd1HPwrf5uv5Fre9Q8HGKr8NuUpla9swbEgCIpbbP7XFYdOF8VNZPBw2VVm0Po3wfPNo0vq3ggwTjvk4n3aHErtmwc5EeLKnoTj/rp2EiMYHALG9uCjRcwpBa7wWwhONXGC7yJF0RoXXmaHHDo2GrZxEdgoLGXZxNfkCGKPV8NivL94tfX/+P1x+en3tPheJy+FJf/t5+G+mj6rOT7dw==);lineShape=1;strokeColor=default;" vertex="1" parent="1">
          <mxGeometry x="1192.439837926945" y="953.5914411925869" width="56.64156180025566" height="68.2415940435867" as="geometry" />
        </mxCell>
        <mxCell id="gsKTQ0ONkdeiCE5crQjz-49" value="" style="shape=stencil(nVjLctswDPwaXzF8gSTOafofmYnTeJrGGcd9/X2heqgKULROerMlrUgAuwtQu3zz+nj3st+l8Ho+Hb/ufx7uz4+7/GmX0uH5cX86nPXXLt/u8s3D8bT/cjp+f76//H+5m56cfn07/pje8OuCk049TKgUfl+udCGRv1c+XwBPh+clINF0bwEQptC2AZ0pVQvolAGgMVUxgBgChbCNqJlqt0sItbgNKHrb7alRBICsMTpAogzSlAJJsXkt1EHU4tPaCkXwfKTWzPM1UE3bz88ZHM8XplhAxP79OVBmsJ/kMxQbSQcZ0qI55o2ivL2hSmIzlIjBhjhSYPP8FRJpvu1+IhVQYa1PsxWulJAOElX7fMyUQABdZRJtwLojQNKJkg4gI2dvA3iQfi6yrpkBoFGwAGWRgKKp1F0ROFFBW2pUHa95RLUFKK4MdbzibUD1yqyNOgpa65otoA+/2UprtgZWhSJaoRCHDwFUO/VDW0qjTO8NWstUV2lFlV71hWuFS0MuMyCTAIEqwBlGna9sZSnatlAjMSJfXlEjjPa4VTjXPRXACMC+U022DUxAyVfEx5CAb0+NLPssJSwgZl+HgirdfH9W6+wohvUKs6TeG4OqHNG7jtsLPRSUpXUdhAKWqK+0DHZtcmnlGh0DYvOAiNK61oPaMzYBrzgeXf69mi5wdPsfgLOZ0rGA4ghxBkRYae2i4nqcjjZgBZ1Xq2VrYuhLPVCzgNihgNpqXJ2GJxCDCtKRD8tBRx+XVYajWNZJzRIDjwH6uuQm9CvDavFU1eENRaAGYBfICU4y2c9ipcAiq5otKRhLJ8bhoQtxCiiZxuciaNhg9ITR3YEBz5McVgexAFu6sqhZR1LLSYin7AcfBaDhTY84wfJI5dqQI+mZwgUtcEhXo+9WOl21gefJ3DyAcf/s4gGwHfYxlC9XQEH3YScLABx8hLKttCYaHT4V4MZDNbWAsiSroBkexhYn8gVdYdTzZ4UZoCaGo+7WVtXK4SAjxOIBgnq6jElqwT7IjQ9/LLkO0B//vs08HJ6eLp92lvf9txy9dPkOlG//AA==);lineShape=1;strokeColor=default;" vertex="1" parent="1">
          <mxGeometry x="1260.4586516795744" y="986.8407692834871" width="65.9669112373549" height="41.60765825722865" as="geometry" />
        </mxCell>
        <mxCell id="gsKTQ0ONkdeiCE5crQjz-50" value="" style="shape=stencil(lVfLctswDPwaXTEgwOc5Tf8jM3FqTV0747ht8veFqrFlQva2ucnyLgUCiwU56MPb9ul1Mwi/nY6H75vf4/NpO+iXQWTcbzfH8WRPgz4O+vByOG6+HQ8/98/z79enCTk9/Tj8mlZ4n3k5UqgTS/hjftMq1fT3zdeZsBv3V4SYqJaewJTkPkEjtf4LVYnrfYKsCMWCBCGFTEk7Qlaq+T6hkfb4JJQVbIEkd/jI1MJ9PFPgDq9MzAjPPd7epILiyX08AWe0UurXz3C7Eij06zNVhI+kweEjSL9cFLbgAwhfb6zPQHFWnSAeD8plks5+v0hviUmL3y9YPykVdfgC9pvSeblLfUnQ+olEHT6j+E3PTm/EQG6xUYoOH1H+41leCz4DPWj1DS9UkPxvxF+QPou3LKEE8mP9lTxeEJ59fQO0n9AoF4dH+Zzk1efH7AfkRy5usOCRnVh+xPeXoHpZ+b2eGdc3NI8HdhjNvVf4BvCmHx+Pon4xufj1c4T9xb1fBbhfwzu/DZRQPPHcfgu+oXg+iTc/dP2bof9o8vmx+RJQQ1p/OIP4xwAzBfUZtZmMtjCFtBrBFWlIfM2s6gkRViZnh4gMVJeqnwJFqYE2zjb23EEI+1w1GfdzrOFGa+283tVhTsEXAq+OHsYoIE32CX9ebMTAfFshzZ6goNQtnofXFSGjkIIfB0aooN+q+Z14AlKf1ckZzFXibjKKHblWaWqg5+yI6zx12gQoXbGhs9oEqlwufuoYAR3Tsh1DoicgG/j0XeI/CPawXF1ext1uvvlc/++vOvZqvibp4x8=);lineShape=1;strokeColor=default;" vertex="1" parent="1">
          <mxGeometry x="1367.9130071513282" y="929.0173496340706" width="7.832295269405222" height="101.3957738002548" as="geometry" />
        </mxCell>
        <mxCell id="gsKTQ0ONkdeiCE5crQjz-51" value="" style="shape=stencil(lVjbUlsxDPyavGpsy9dn2v4HM4SSKSUM0Nvfd9PUJ7Gcs4G3cNAeW9JqJZ2N3rw+3D5vN8G9vr3sv21/7e7eHjb6aRPC7ulh+7J7w6+Nft7ozf3+Zfv1Zf/j6e749/PtwfLw6/v+5+ENv4+4LN4dQMH9OT5w4tO/B1+O5o+7pzNzXyTVwT6ID+v2IUnSwV4l1nV7ValpsE8S3Lp9DFLH9+OC5D4pSPSDvXcUkL2UPAIijVDB+8aI+iqhEEAVDWNI4ZRfB9QobbwSnC7Eh+amJOAEkoWWxBtA7Ty5DKg2rFElRAJo1oeIKCkhnnPixrimK05UaaMTqVAutWydQPKV3KkFSWUEJOpERZ4MAJckmauorjjSGwRuhExZdKzPkqQwgBc3sg98LISucNFkrvoehrUK8uMJlVdQQh7GKNXlyVpRu1E0apVE2BeRhxGAEmEnaJM0Ot1UGtOxJG5MHGqqkCtB5ww1UCKBRCnEripngELoDVWJagGNnYCYpAlAuAShS9MJTMl87hV8BogkSj5JNgAUEHEaAKcWEDIHjGxtS8tbvZLJdJbGfIDTEyAyH6qtBwAca7rOigDIVxn5gmieAKQeDuTz9kpX5oCiFpAY+bLtu8iDJ9oaFnE/AzDlwwn/yXxGjUiocZiVpopzPErVWwCTSgxHbjqhMh+grXacWfrkZTK1rr3vPAITn7bJCVYQeaoghImdgGljKmo2JGICa8aHwnUmiRYLoGPu1EYPdCWZ+zBAnWRDV09VAC3IsA9NjpUcJrA8tVFlgNpHtrNGzdQ46dR3ISTEh1TtXFlAPlJyedkWFkDpE9FlQLNXKpHqPf5tFwhPdaZCXMco5dKl6jIg2RUrx/6KywC0NDMlOnoCmGNaEEaoxgChd6j3ztJqh+/ISxRXSqMIgI6FVBycDqPMYOWgW5DajqL8hLIsGMvaVK+NxmZKDHxwRV5NpqG2LKwp9R64ADLtKHFaUTwSx1Sj2IrDvutY36298Z8WajoJ+F5eC1lpgXrtC89CDMnsPqImB3SM9n07OpmzKcN1ApzMmX45y1FP52FnZ0/UKanKacHF9kkKAJcZA+m6bKyYm27gaNyXzfdkrmwQEZ+NuWfrkR1bOCmj3SD5jJPs0rwk4nLZfuwT2FVz/Dh9bbvfPT4eP9ad/99+ncOj45c9/fwX);lineShape=1;strokeColor=default;" vertex="1" parent="1">
          <mxGeometry x="1370.7878704378872" y="926.7810775365172" width="36.58983523846564" height="107.40687124392639" as="geometry" />
        </mxCell>
        <mxCell id="gsKTQ0ONkdeiCE5crQjz-52" value="" style="shape=stencil(lVjbchoxDP0aXjW2ZMv2c5r+R2ZCClMKGUJ6+ftqyyysZThp3hajs5Z1OTrelTy8bZ5e1ysOb6fj4fv61/b5tFnJlxXzdr9ZH7cne1rJ40oeXg7H9bfj4X3/fP79+jRZTk8/Dj+nN/w+47hQzhOKw5/zilBp/xa+nu132/3CPlZqxdlnBfaREnf2iSTdt29Ua2deKQLzGEhDZx+ZKvJfKKQeYFsGAFBKPeADlzhQ1D5ChUQAQGYHLiFSqiCmlrPQ5yArxQwAjVLrAJqoxPsACZRjByhMoUJA7M9QChUAMJdCv0ONVFGUCml/6JpI0aELce9StVcwOAOTOpfaXCw3AYkp9cXaLG5ghyzEDsAUAUArZQdIFAton0LRAcoc6NuASlw8gEE/tObL2wDo0AYoA6DBng4U+syZlwlvUdUDGjp1I+lZ77pyL0w5eUBBYSq+5QzQQH03JemJchGH24g8ZMK2QGGy2hEPUNCkTWbiWoYJ7WDkm30iKtqBqYgHCOBvc8nXRsGpFt/VU72isKa5nBeAiM6QZ1r5355TT/i20tAOZS6dpUsoD1b+Q5QS7modAEgHTKU2tByDoTUBhtIoqOXaLCwWxceYyurQo4p71NOGEQliV6XCHtBQlPIN2mgoSp8FqA5MZvwN2DWbYnI7ZFga0uYxewEIPDSPM4ihADJN6biyXob9PYnFDiBYMdmYdQDTpViTuaE16RkQJZO1XgAxzIPt4ASQZqg27NCpz4OpPii9dU7TRVdiITpp4z5xplwraNHhLmArSFZmz912JgF5jvPbLiPRBBTwZ9ANxvQoyRR6VrVxB1i4+JtDgNPWfJXo7NE4t3uIqrdH3hvfsrNHk9MUt+sBKygQfJP0rhoC1Ntm72Z/gINZoq/nCBtGLveDqz2U89GXP8N4TvbR2SfsT/bvRxcYsw/uXgilvMVT/M08IY4bLnmCSXSQtIJvbJ/8UvCxvT1cP0u8bHe781eN5f/+M4YtnT+ByONf);lineShape=1;strokeColor=default;" vertex="1" parent="1">
          <mxGeometry x="1432.9538346843055" y="942.2791026554871" width="40.813129771846434" height="98.19013190121655" as="geometry" />
        </mxCell>
        <mxCell id="gsKTQ0ONkdeiCE5crQjz-53" value="" style="shape=stencil(lVbLctswDPwaXTEkQILkOU3/IzNxak1dO+M4ffx9oWqkBlS0aW+0jCW52AXAQe5ejg/Ph4HDy+16+Xr4MT7ejoN8GpjH8/FwHW+2GuR+kLuny/Xw5Xp5PT/Ov58fpshp9e3yfdrh54xLpG0Ccfg1f4iVpPz58nmOP43nN/HMFIMDcKAq+4AUKXQnNAjQQBr7K9W4D6hCiT1AKQIOLRNXBwjE4ICmpNLFZ8CgFaqecqKcQXyllj2BSFUBoJEWL0JcdHwXEEOg4GUTocDwiJ6DWQWRaCTqADlDJxnr5AGaKCDWpZdN7ZIB6tzltfCShvcBRtE7qQRKSGmznveqmrcSADAlf6Ws1IByzZzgAUmx+WLvDUnUkA6Rmnc3C2VUDky5q2ghQdaQHpApI6ET1dTVW0P7W7n39QxlLpT8fZgqqoXa139bmuBeKSQvgXUwxoDmCU8n4GJrnnEKmEKj7AE5LlvscS4+RxoX6+4ltZskaqSRykrJt6Ri1kVX0r7YPgDYYMheh7o6a2/0FF//de1qe8ONO2cwNQDYjk/LWwZX2s7ngM0tS2mtB+DpyX0tWNcU4KTY728pKqAfhaVFr/EMx4KNYq9ZEVKQ0c1gsymCinMTnxO06eY+NgcLyOeGryjUa5NPXrvNv+lligdgoI0f7PmFmu//Pgg/jrfF39fn03g6zY/Xt//3r1X7NL905f43);lineShape=1;strokeColor=default;" vertex="1" parent="1">
          <mxGeometry x="1442.0776333854164" y="990.0120786345792" width="33.90569616120865" height="3.9220726148105314" as="geometry" />
        </mxCell>
        <mxCell id="gsKTQ0ONkdeiCE5crQjz-63" value="Python SDK" style="text;html=1;strokeColor=none;fillColor=none;align=center;verticalAlign=middle;whiteSpace=wrap;rounded=0;" vertex="1" parent="1">
          <mxGeometry x="323.25" y="180" width="66.75" height="30" as="geometry" />
        </mxCell>
        <mxCell id="gsKTQ0ONkdeiCE5crQjz-64" value="Node &lt;br&gt;SDK" style="text;html=1;strokeColor=none;fillColor=none;align=center;verticalAlign=middle;whiteSpace=wrap;rounded=0;" vertex="1" parent="1">
          <mxGeometry x="323.25" y="285" width="66.75" height="30" as="geometry" />
        </mxCell>
        <mxCell id="gsKTQ0ONkdeiCE5crQjz-65" value="Neck Beard&lt;br&gt;" style="shape=umlActor;verticalLabelPosition=bottom;verticalAlign=top;html=1;outlineConnect=0;" vertex="1" parent="1">
          <mxGeometry x="140" y="160" width="30" height="60" as="geometry" />
        </mxCell>
        <mxCell id="gsKTQ0ONkdeiCE5crQjz-67" value="Neck Beard&lt;br&gt;" style="shape=umlActor;verticalLabelPosition=bottom;verticalAlign=top;html=1;outlineConnect=0;" vertex="1" parent="1">
          <mxGeometry x="110" y="590" width="30" height="60" as="geometry" />
        </mxCell>
        <mxCell id="gsKTQ0ONkdeiCE5crQjz-68" value="Neck Beard&lt;br&gt;" style="shape=umlActor;verticalLabelPosition=bottom;verticalAlign=top;html=1;outlineConnect=0;" vertex="1" parent="1">
          <mxGeometry x="160" y="180" width="30" height="60" as="geometry" />
        </mxCell>
        <mxCell id="gsKTQ0ONkdeiCE5crQjz-69" value="Neck Beard&lt;br&gt;" style="shape=umlActor;verticalLabelPosition=bottom;verticalAlign=top;html=1;outlineConnect=0;" vertex="1" parent="1">
          <mxGeometry x="216.21" y="568.8" width="30" height="60" as="geometry" />
        </mxCell>
        <mxCell id="gsKTQ0ONkdeiCE5crQjz-70" value="Neck Beard&lt;br&gt;" style="shape=umlActor;verticalLabelPosition=bottom;verticalAlign=top;html=1;outlineConnect=0;" vertex="1" parent="1">
          <mxGeometry x="160" y="550" width="30" height="60" as="geometry" />
        </mxCell>
        <mxCell id="gsKTQ0ONkdeiCE5crQjz-71" value="Neck Beard&lt;br&gt;" style="shape=umlActor;verticalLabelPosition=bottom;verticalAlign=top;html=1;outlineConnect=0;" vertex="1" parent="1">
          <mxGeometry x="170" y="370" width="30" height="60" as="geometry" />
        </mxCell>
        <mxCell id="gsKTQ0ONkdeiCE5crQjz-72" value="Neck Beard&lt;br&gt;" style="shape=umlActor;verticalLabelPosition=bottom;verticalAlign=top;html=1;outlineConnect=0;" vertex="1" parent="1">
          <mxGeometry x="200" y="407.62" width="30" height="60" as="geometry" />
        </mxCell>
        <mxCell id="gsKTQ0ONkdeiCE5crQjz-73" value="Neck Beard&lt;br&gt;" style="shape=umlActor;verticalLabelPosition=bottom;verticalAlign=top;html=1;outlineConnect=0;" vertex="1" parent="1">
          <mxGeometry x="140" y="390" width="30" height="60" as="geometry" />
        </mxCell>
      </root>
    </mxGraphModel>
  </diagram>
</mxfile>
